<?xml version="1.0" encoding="utf-8"?>
<!-- Generator: Adobe Illustrator 16.0.0, SVG Export Plug-In . SVG Version: 6.00 Build 0)  -->
<!DOCTYPE svg PUBLIC "-//W3C//DTD SVG 1.1//EN" "http://www.w3.org/Graphics/SVG/1.1/DTD/svg11.dtd">
<svg version="1.1" id="Capa_1" xmlns="http://www.w3.org/2000/svg" xmlns:xlink="http://www.w3.org/1999/xlink" x="0px" y="0px"
	 width="800px" height="800px" viewBox="0 0 800 800" enable-background="new 0 0 800 800" xml:space="preserve">
<g>
	<g>
		<rect x="80" y="66.667" fill="#FFFFFF" width="213.333" height="26.667"/>
	</g>
</g>
<g>
	<g>
		<rect x="80" y="13.333" fill="#FFFFFF" width="213.333" height="26.667"/>
	</g>
</g>
<g>
	<g>
		<path fill="#FFFFFF" d="M800,106.667V0H693.333v26.667H752l-124.76,99.8l-13,143.106L471.573,308.48L331.106,525.573
			l-147.56-147.546L53.333,614.773V13.333C53.333,5.97,47.363,0,40,0H13.333C5.97,0,0,5.97,0,13.333
			c0,7.363,5.97,13.333,13.333,13.333h13.333V160H13.333C5.97,160,0,165.97,0,173.333c0,7.363,5.97,13.333,13.333,13.333h13.333v120
			H13.333C5.97,306.667,0,312.637,0,320s5.97,13.333,13.333,13.333h13.333v120H13.333C5.97,453.333,0,459.304,0,466.667
			S5.97,480,13.333,480h13.333v120H13.333C5.97,600,0,605.97,0,613.333s5.97,13.334,13.333,13.334h13.333v120H13.333
			C5.97,746.667,0,752.637,0,760s5.97,13.333,13.333,13.333h13.333v13.334C26.667,794.03,32.637,800,40,800
			s13.333-5.97,13.333-13.333v-13.334h120v13.334c0,7.363,5.97,13.333,13.333,13.333S200,794.03,200,786.667v-13.334h120v13.334
			c0,7.363,5.97,13.333,13.333,13.333s13.334-5.97,13.334-13.333v-13.334h120v13.334c0,7.363,5.97,13.333,13.333,13.333
			s13.333-5.97,13.333-13.333v-13.334h120v13.334c0,7.363,5.971,13.333,13.334,13.333S640,794.03,640,786.667v-13.334h133.333
			v13.334c0,7.363,5.971,13.333,13.334,13.333S800,794.03,800,786.667V720h-26.667v26.667H640V720h-26.667v26.667h-120V720h-26.666
			v26.667h-120V720H320v26.667H200V720h-26.667v26.667h-120V670.08l133.88-243.413h7.267L327.813,560H320v26.667h26.667V560h-6.08
			l126.08-194.854v8.187h26.666v-26.667h-14.666l9.8-15.146l124.866-34.067V320H640v-26.667h-11.533l10.666-2.907L652.8,140.2
			l120.533-96.454v62.92H800z"/>
	</g>
</g>
<g>
	<g>
		<rect x="80" y="120" fill="#FFFFFF" width="160" height="26.667"/>
	</g>
</g>
<g>
	<g>
		<rect x="80" y="173.333" fill="#FFFFFF" width="160" height="26.667"/>
	</g>
</g>
<g>
	<g>
		<rect x="173.333" y="666.667" fill="#FFFFFF" width="26.667" height="26.666"/>
	</g>
</g>
<g>
	<g>
		<rect x="173.333" y="613.333" fill="#FFFFFF" width="26.667" height="26.667"/>
	</g>
</g>
<g>
	<g>
		<rect x="173.333" y="560" fill="#FFFFFF" width="26.667" height="26.667"/>
	</g>
</g>
<g>
	<g>
		<rect x="173.333" y="506.667" fill="#FFFFFF" width="26.667" height="26.666"/>
	</g>
</g>
<g>
	<g>
		<rect x="173.333" y="453.333" fill="#FFFFFF" width="26.667" height="26.667"/>
	</g>
</g>
<g>
	<g>
		<rect x="320" y="666.667" fill="#FFFFFF" width="26.667" height="26.666"/>
	</g>
</g>
<g>
	<g>
		<rect x="320" y="613.333" fill="#FFFFFF" width="26.667" height="26.667"/>
	</g>
</g>
<g>
	<g>
		<rect x="466.667" y="666.667" fill="#FFFFFF" width="26.666" height="26.666"/>
	</g>
</g>
<g>
	<g>
		<rect x="466.667" y="613.333" fill="#FFFFFF" width="26.666" height="26.667"/>
	</g>
</g>
<g>
	<g>
		<rect x="466.667" y="560" fill="#FFFFFF" width="26.666" height="26.667"/>
	</g>
</g>
<g>
	<g>
		<rect x="466.667" y="506.667" fill="#FFFFFF" width="26.666" height="26.666"/>
	</g>
</g>
<g>
	<g>
		<rect x="466.667" y="453.333" fill="#FFFFFF" width="26.666" height="26.667"/>
	</g>
</g>
<g>
	<g>
		<rect x="466.667" y="400" fill="#FFFFFF" width="26.666" height="26.667"/>
	</g>
</g>
<g>
	<g>
		<rect x="613.333" y="666.667" fill="#FFFFFF" width="26.667" height="26.666"/>
	</g>
</g>
<g>
	<g>
		<rect x="613.333" y="613.333" fill="#FFFFFF" width="26.667" height="26.667"/>
	</g>
</g>
<g>
	<g>
		<rect x="613.333" y="560" fill="#FFFFFF" width="26.667" height="26.667"/>
	</g>
</g>
<g>
	<g>
		<rect x="613.333" y="506.667" fill="#FFFFFF" width="26.667" height="26.666"/>
	</g>
</g>
<g>
	<g>
		<rect x="613.333" y="453.333" fill="#FFFFFF" width="26.667" height="26.667"/>
	</g>
</g>
<g>
	<g>
		<rect x="613.333" y="400" fill="#FFFFFF" width="26.667" height="26.667"/>
	</g>
</g>
<g>
	<g>
		<rect x="613.333" y="346.667" fill="#FFFFFF" width="26.667" height="26.667"/>
	</g>
</g>
<g>
	<g>
		<rect x="773.333" y="666.667" fill="#FFFFFF" width="26.667" height="26.666"/>
	</g>
</g>
<g>
	<g>
		<rect x="773.333" y="613.333" fill="#FFFFFF" width="26.667" height="26.667"/>
	</g>
</g>
<g>
	<g>
		<rect x="773.333" y="560" fill="#FFFFFF" width="26.667" height="26.667"/>
	</g>
</g>
<g>
	<g>
		<rect x="773.333" y="506.667" fill="#FFFFFF" width="26.667" height="26.666"/>
	</g>
</g>
<g>
	<g>
		<rect x="773.333" y="453.333" fill="#FFFFFF" width="26.667" height="26.667"/>
	</g>
</g>
<g>
	<g>
		<rect x="773.333" y="400" fill="#FFFFFF" width="26.667" height="26.667"/>
	</g>
</g>
<g>
	<g>
		<rect x="773.333" y="346.667" fill="#FFFFFF" width="26.667" height="26.667"/>
	</g>
</g>
<g>
	<g>
		<rect x="773.333" y="293.333" fill="#FFFFFF" width="26.667" height="26.667"/>
	</g>
</g>
<g>
	<g>
		<rect x="773.333" y="240" fill="#FFFFFF" width="26.667" height="26.667"/>
	</g>
</g>
<g>
	<g>
		<rect x="773.333" y="186.667" fill="#FFFFFF" width="26.667" height="26.667"/>
	</g>
</g>
<g>
	<g>
		<rect x="773.333" y="133.333" fill="#FFFFFF" width="26.667" height="26.667"/>
	</g>
</g>
</svg>
