<?xml version="1.0" encoding="utf-8"?>
<!-- Generator: Adobe Illustrator 16.0.0, SVG Export Plug-In . SVG Version: 6.00 Build 0)  -->
<!DOCTYPE svg PUBLIC "-//W3C//DTD SVG 1.1//EN" "http://www.w3.org/Graphics/SVG/1.1/DTD/svg11.dtd">
<svg version="1.1" id="Capa_1" xmlns="http://www.w3.org/2000/svg" xmlns:xlink="http://www.w3.org/1999/xlink" x="0px" y="0px"
	 width="800px" height="800px" viewBox="0 0 800 800" enable-background="new 0 0 800 800" xml:space="preserve">
<g>
	<g>
		<path fill="#FFFFFF" d="M720,40c-44.094-0.08-79.904,35.602-79.984,79.697c-0.037,20.783,8.031,40.763,22.49,55.691
			L516.347,467.654c-3.203-0.531-6.436-0.86-9.68-0.985c-10.328,0.021-20.553,2.05-30.106,5.974L363.094,345.042
			c6.623-11.711,10.148-24.918,10.24-38.373c0-44.183-35.816-80-80-80s-80,35.817-80,80c0.078,19.097,7.048,37.523,19.626,51.894
			L94.294,601.44c-4.713-0.906-9.496-1.389-14.294-1.44c-44.183,0-80,35.817-80,80s35.817,80,80,80s80-35.817,80-80
			c-0.078-19.097-7.048-37.523-19.626-51.894l138.667-242.88c14.886,2.94,30.311,1.362,44.293-4.533l113.468,127.6
			c-6.586,11.72-10.075,24.928-10.133,38.373c-0.133,44.183,35.575,80.108,79.758,80.241s80.107-35.575,80.24-79.758
			c0.063-20.844-8.013-40.89-22.506-55.869L710.32,199.014c3.203,0.531,6.436,0.861,9.68,0.986c44.183,0,80-35.817,80-80
			S764.183,40,720,40z M80,706.667c-14.728,0-26.667-11.938-26.667-26.667S65.272,653.333,80,653.333s26.667,11.938,26.667,26.667
			S94.728,706.667,80,706.667z M293.333,333.333c-14.729,0-26.667-11.939-26.667-26.667s11.939-26.667,26.667-26.667
			c14.728,0,26.667,11.939,26.667,26.667S308.061,333.333,293.333,333.333z M506.667,573.333c-14.728,0-26.667-11.939-26.667-26.667
			c0-14.729,11.939-26.668,26.667-26.668c14.729,0,26.667,11.939,26.667,26.668C533.333,561.394,521.394,573.333,506.667,573.333z
			 M720,146.667c-14.729,0-26.667-11.939-26.667-26.667S705.271,93.333,720,93.333s26.667,11.939,26.667,26.667
			S734.729,146.667,720,146.667z"/>
	</g>
</g>
</svg>
